<?xml version="1.0" standalone="no"?>
<!DOCTYPE svg PUBLIC "-//W3C//DTD SVG 20010904//EN"
 "http://www.w3.org/TR/2001/REC-SVG-20010904/DTD/svg10.dtd">
<svg version="1.0" xmlns="http://www.w3.org/2000/svg"
 width="512.000000pt" height="512.000000pt" viewBox="0 0 512.000000 512.000000"
 preserveAspectRatio="xMidYMid meet">
<metadata>
Created by potrace 1.14, written by Peter Selinger 2001-2017
</metadata>
<g transform="translate(0.000000,512.000000) scale(0.100000,-0.100000)"
fill="#000000" stroke="none">
<path d="M1025 5108 c-32 -11 -91 -52 -113 -78 -7 -8 -23 -35 -35 -60 -21 -43
-22 -59 -25 -382 l-3 -336 -147 -4 c-161 -4 -182 -10 -242 -70 -63 -62 -85
-157 -60 -249 14 -51 76 -118 134 -145 45 -21 65 -24 184 -24 l132 0 0 -235 0
-235 -118 0 c-78 0 -136 -5 -171 -16 -197 -58 -232 -330 -57 -439 48 -29 53
-30 198 -33 l148 -3 0 -239 0 -239 -148 -3 c-145 -3 -150 -4 -198 -33 -175
-109 -140 -381 57 -439 35 -11 93 -16 171 -16 l118 0 0 -235 0 -235 -132 0
c-119 0 -139 -3 -184 -24 -58 -27 -120 -94 -134 -145 -25 -92 -3 -187 60 -249
60 -60 81 -66 242 -70 l147 -4 3 -336 c3 -317 4 -340 24 -382 24 -53 72 -102
123 -127 34 -17 124 -18 1761 -21 1215 -1 1741 1 1778 9 71 14 130 61 165 128
l27 55 0 2366 0 2366 -27 55 c-34 66 -94 113 -163 128 -70 15 -3472 14 -3515
-1z m1890 -1480 c106 -27 214 -122 268 -236 42 -90 49 -216 18 -307 -97 -278
-425 -383 -658 -212 -118 88 -175 202 -174 351 1 120 40 211 128 299 107 108
259 146 418 105z m229 -973 c152 -40 269 -161 311 -322 11 -43 15 -118 15
-305 l0 -248 -675 0 -675 0 0 253 c0 196 3 266 16 312 37 145 147 259 292 306
50 16 95 18 357 18 237 1 313 -2 359 -14z"/>
</g>
</svg>
